<?xml version="1.0" standalone="no"?>
<!DOCTYPE svg PUBLIC "-//W3C//DTD SVG 20010904//EN"
 "http://www.w3.org/TR/2001/REC-SVG-20010904/DTD/svg10.dtd">
<svg version="1.0" xmlns="http://www.w3.org/2000/svg"
 width="811.000000pt" height="766.000000pt" viewBox="0 0 811.000000 766.000000"
 preserveAspectRatio="xMidYMid meet">

<g transform="translate(0.000000,766.000000) scale(0.100000,-0.100000)"
fill="#000000" stroke="none">
<path d="M0 3830 l0 -3830 4055 0 4055 0 0 3830 0 3830 -4055 0 -4055 0 0
-3830z m4330 3511 c87 -45 204 -164 247 -252 48 -98 65 -157 70 -245 5 -78 4
-83 -20 -110 -22 -23 -25 -34 -22 -75 4 -45 3 -48 -30 -68 -19 -11 -41 -18
-48 -16 -30 12 -207 -389 -207 -472 0 -12 -5 -25 -10 -28 -6 -4 -8 -10 -5 -15
13 -21 -18 -19 -34 2 -23 28 -35 42 -136 154 -109 120 -121 131 -156 138 -46
9 -87 7 -94 -4 -3 -5 -15 -10 -26 -10 -10 0 -19 -4 -19 -9 0 -8 -53 -25 -77
-24 -7 0 -13 -3 -13 -7 0 -11 -60 -31 -72 -24 -5 3 -7 15 -4 27 3 13 1 11 -6
-5 -7 -16 -18 -28 -25 -28 -16 0 -17 -15 -3 -40 8 -15 7 -18 -4 -14 -9 3 -16
31 -21 82 -3 42 -8 91 -10 107 -8 66 -15 168 -20 320 -6 143 -4 168 14 236 30
109 74 183 155 265 76 76 104 94 206 131 57 21 79 23 185 20 113 -3 124 -5
185 -36z m320 -667 c0 -19 -3 -34 -8 -34 -4 0 -7 18 -7 39 0 22 3 37 7 35 5
-3 8 -21 8 -40z m-50 -114 c0 -5 -4 -10 -10 -10 -5 0 -10 5 -10 10 0 6 5 10
10 10 6 0 10 -4 10 -10z m-733 -256 c-3 -3 -12 -4 -19 -1 -8 3 -5 6 6 6 11 1
17 -2 13 -5z m-167 -49 c0 -2 -7 -5 -15 -9 -9 -3 -15 0 -15 9 0 9 6 12 15 9 8
-4 15 -7 15 -9z m2954 -396 c106 -38 184 -88 259 -166 91 -93 162 -209 154
-249 -2 -13 0 -21 4 -18 5 3 9 0 9 -5 0 -6 -4 -11 -9 -11 -5 0 -11 -8 -14 -17
-3 -16 -5 -16 -12 2 -5 11 -22 34 -38 52 l-29 32 -115 -1 -115 -1 -72 -71
c-75 -74 -184 -170 -220 -195 -12 -8 -24 -20 -28 -27 -5 -7 -27 -11 -58 -10
-38 2 -50 -1 -50 -12 0 -10 8 -13 30 -10 17 3 30 1 30 -4 0 -4 -3 -8 -7 -9 -5
0 -25 -2 -45 -4 -28 -3 -38 0 -38 10 0 18 -1 18 -34 5 -45 -17 -280 70 -386
142 -49 34 -70 40 -76 24 -3 -7 -16 -13 -30 -13 -20 0 -22 2 -13 13 9 11 8 14
-4 14 -15 0 -18 23 -4 36 4 4 7 17 7 28 0 30 50 133 96 196 83 116 201 209
327 260 99 40 168 50 294 45 81 -4 118 -11 187 -36z m-4813 20 c103 -22 269
-112 269 -146 0 -13 -3 -14 -22 -1 -39 24 -200 77 -268 88 -103 16 -194 12
-263 -10 -105 -34 -204 -90 -265 -150 -62 -60 -102 -107 -102 -119 0 -4 17
-24 37 -44 32 -32 43 -37 87 -39 63 -2 66 -1 91 3 12 3 19 -1 17 -8 -1 -7 2
-13 8 -13 5 0 10 5 10 11 0 5 5 7 11 3 8 -4 8 -9 0 -17 -14 -14 25 -57 51 -57
10 0 18 -7 18 -15 0 -8 -7 -15 -16 -15 -8 0 -13 -4 -10 -9 3 -4 17 -6 30 -4
21 4 24 2 19 -16 -4 -17 1 -24 26 -34 30 -11 42 -27 20 -27 -5 0 -7 -5 -3 -11
4 -8 9 -8 17 0 18 18 28 13 22 -11 -8 -36 16 -58 59 -54 43 3 58 -11 21 -20
-38 -10 -30 -31 15 -39 36 -6 40 -9 35 -32 -2 -14 -1 -23 2 -19 10 10 33 -15
33 -35 0 -15 7 -19 34 -19 19 0 37 -4 40 -9 3 -5 23 -11 43 -14 21 -2 74 -14
118 -26 44 -12 89 -24 100 -25 37 -6 77 -26 97 -49 11 -12 17 -16 13 -9 -4 7
0 12 9 12 9 0 16 -7 16 -17 0 -9 14 -28 31 -43 16 -15 31 -37 32 -48 0 -11 4
-19 8 -16 4 2 9 -4 11 -13 5 -21 -28 -93 -42 -93 -6 0 -10 -11 -10 -24 0 -40
-101 -154 -199 -224 -37 -25 -67 -50 -69 -54 -2 -4 -10 -8 -19 -8 -8 0 -26 -9
-40 -20 -14 -11 -33 -20 -42 -20 -10 0 -21 -4 -27 -9 -13 -14 -128 -31 -206
-31 -68 0 -157 14 -193 30 -11 5 -45 19 -75 30 -179 69 -357 269 -420 473 -46
150 -63 308 -41 381 6 17 17 62 25 100 9 37 36 109 61 160 107 219 278 362
505 425 49 13 229 13 291 0z m-321 -449 c0 -11 -4 -20 -9 -20 -7 0 -8 17 -2
38 4 10 11 -2 11 -18z m175 -200 c3 -5 1 -10 -4 -10 -6 0 -11 5 -11 10 0 6 2
10 4 10 3 0 8 -4 11 -10z m-35 -10 c0 -5 -5 -10 -11 -10 -5 0 -7 5 -4 10 3 6
8 10 11 10 2 0 4 -4 4 -10z m236 -198 c1 -7 0 -8 -3 -2 -2 5 -9 8 -14 4 -5 -3
-9 0 -9 6 0 15 23 7 26 -8z m437 -156 c4 -9 -2 -12 -16 -11 -29 3 -29 3 -22
15 9 14 32 12 38 -4z m1786 -457 c-16 -10 -23 -4 -14 10 3 6 11 8 17 5 6 -4 5
-9 -3 -15z m-1396 -296 c-24 -9 -13 -25 12 -19 31 8 32 -3 1 -63 -13 -25 -32
-64 -42 -86 -10 -22 -21 -42 -24 -45 -13 -12 -30 -64 -30 -90 0 -17 -4 -30 -9
-30 -5 0 -7 10 -4 23 4 17 1 16 -11 -7 -11 -19 -13 -32 -6 -36 9 -6 4 -35 -16
-85 -7 -18 -6 -18 9 -6 14 11 18 10 29 -14 11 -26 12 -26 20 -6 4 12 15 21 23
21 9 0 13 -5 10 -11 -4 -5 0 -18 8 -27 8 -9 17 -28 20 -42 4 -25 4 -24 6 3 1
25 4 27 41 27 33 0 40 -3 40 -20 0 -14 -7 -20 -24 -20 -32 0 -39 -24 -14 -47
20 -18 21 -18 14 5 -6 16 -3 22 8 22 9 0 16 5 16 10 0 25 35 5 91 -52 34 -35
67 -62 75 -60 8 2 14 -4 14 -13 0 -9 7 -23 15 -32 12 -12 19 -13 30 -3 12 10
15 9 15 -3 0 -10 6 -13 20 -10 29 8 52 -14 39 -38 -7 -13 -6 -19 1 -19 6 0 8
-10 4 -25 -10 -39 12 -29 33 15 20 44 39 54 29 14 -8 -31 2 -67 16 -58 5 3 7
17 4 30 -5 20 -3 24 16 23 13 0 17 -3 11 -6 -7 -2 -13 -18 -13 -34 0 -18 4
-28 10 -24 6 3 10 1 10 -4 0 -6 9 -11 19 -11 14 0 18 -5 14 -20 -4 -14 0 -20
11 -20 9 0 16 -7 16 -16 0 -8 4 -13 8 -10 10 6 9 36 -2 54 -5 8 0 12 14 12 12
0 18 -4 15 -10 -11 -17 5 -32 21 -19 7 6 11 16 8 21 -3 5 0 8 7 6 8 -1 43 26
79 60 36 34 68 62 72 62 15 0 8 -32 -16 -79 -87 -168 -400 -669 -483 -771 -32
-40 -141 -190 -167 -230 -87 -136 -486 -558 -584 -619 -7 -4 -25 -18 -40 -30
-15 -11 -54 -42 -87 -68 -33 -26 -63 -52 -67 -59 -14 -22 -111 -87 -177 -117
-75 -35 -182 -47 -258 -28 -55 14 -175 61 -183 71 -3 3 -21 17 -41 31 -43 29
-112 104 -161 176 -136 198 -98 513 85 718 26 30 94 90 150 133 142 110 321
296 566 588 19 22 95 121 126 164 11 15 48 70 82 121 34 52 70 105 81 119 10
14 58 88 106 165 48 77 101 159 117 183 16 23 29 46 29 51 0 4 18 33 40 63 22
31 45 67 50 80 10 22 24 45 44 76 4 7 11 10 15 6 3 -4 0 -9 -6 -11z m-12 -255
c5 1 9 -2 9 -8 0 -5 -11 -9 -25 -8 -20 2 -25 8 -25 28 1 24 1 25 16 5 8 -11
20 -19 25 -17z m-24 -124 c-3 -3 -12 -4 -19 -1 -8 3 -5 6 6 6 11 1 17 -2 13
-5z m-27 -34 c0 -11 -4 -20 -10 -20 -5 0 -10 2 -10 4 0 2 -3 11 -6 20 -4 11
-1 16 10 16 9 0 16 -8 16 -20z m250 10 c0 -5 -2 -10 -4 -10 -3 0 -8 5 -11 10
-3 6 -1 10 4 10 6 0 11 -4 11 -10z m-5 -40 c3 -5 -1 -10 -9 -10 -9 0 -16 5
-16 10 0 6 4 10 9 10 6 0 13 -4 16 -10z m90 -101 c-52 -6 -68 -3 -48 9 7 4 31
5 55 3 l43 -5 -50 -7z m1038 -26 c-13 -2 -33 -2 -45 0 -13 2 -3 4 22 4 25 0
35 -2 23 -4z m195 0 c-16 -2 -40 -2 -55 0 -16 2 -3 4 27 4 30 0 43 -2 28 -4z
m-1093 -33 c3 -5 1 -10 -4 -10 -6 0 -11 5 -11 10 0 6 2 10 4 10 3 0 8 -4 11
-10z m65 0 c0 -5 -4 -10 -10 -10 -5 0 -10 5 -10 10 0 6 5 10 10 10 6 0 10 -4
10 -10z m1290 -13 c142 -22 349 -66 440 -92 25 -7 79 -23 120 -35 150 -44 384
-129 508 -186 401 -183 605 -289 895 -468 54 -34 112 -69 128 -78 40 -24 215
-163 267 -212 183 -173 248 -431 167 -661 -45 -127 -101 -203 -212 -286 -102
-76 -247 -112 -361 -89 -121 24 -164 44 -291 141 -68 52 -141 105 -162 119
-21 14 -55 37 -76 51 -81 55 -153 99 -162 99 -5 0 -16 6 -23 13 -14 13 -221
133 -273 157 -44 21 -129 73 -136 82 -3 5 -13 6 -22 2 -11 -4 -19 0 -23 10 -3
9 -16 16 -29 16 -12 0 -28 7 -35 15 -6 8 -22 17 -33 21 -12 3 -51 20 -87 36
-154 73 -256 112 -385 148 -44 13 -89 29 -100 36 -11 7 -54 20 -95 30 -41 9
-79 20 -85 24 -5 4 -39 11 -74 15 -38 4 -58 10 -51 15 9 5 -4 11 -33 15 -26 4
-47 11 -47 16 0 5 6 9 13 9 8 0 7 4 -3 10 -8 5 -10 10 -5 10 6 0 12 12 13 27
1 15 7 30 14 34 9 6 9 11 -1 23 -11 13 -11 19 -1 31 16 20 5 32 -14 16 -9 -7
-17 -8 -20 -2 -3 5 -2 11 2 13 14 5 25 158 12 158 -7 0 -8 6 -2 18 5 9 6 49 2
87 -4 39 -3 74 2 79 13 15 10 74 -4 79 -10 4 -10 7 0 18 17 18 15 29 -5 29
-17 1 -17 1 0 14 20 15 23 46 5 47 -10 0 -10 2 0 6 14 6 17 63 2 63 -5 0 -10
5 -10 10 0 6 7 10 17 10 9 0 23 7 32 15 9 9 62 45 119 82 56 37 99 70 95 74
-31 31 -548 46 -726 22 -84 -12 -117 -8 -117 13 0 8 -4 14 -10 14 -5 0 -10 4
-10 9 0 45 630 65 870 28z m-1460 6 c-8 -3 -19 -12 -23 -19 -10 -18 -27 -18
-27 0 0 8 -6 17 -12 19 -7 3 7 5 32 5 25 0 38 -2 30 -5z m97 -105 c-3 -8 -6
-5 -6 6 -1 11 2 17 5 13 3 -3 4 -12 1 -19z m70 0 c-3 -8 -6 -5 -6 6 -1 11 2
17 5 13 3 -3 4 -12 1 -19z m78 -98 c3 -5 1 -10 -4 -10 -6 0 -11 5 -11 10 0 6
2 10 4 10 3 0 8 -4 11 -10z m959 -741 c-3 -5 -10 -7 -15 -3 -5 3 -7 10 -3 15
3 5 10 7 15 3 5 -3 7 -10 3 -15z m51 -776 c71 -18 197 -78 243 -116 151 -127
243 -260 291 -422 48 -164 50 -327 4 -485 -115 -402 -496 -644 -866 -549 -76
19 -115 34 -127 48 -3 3 -30 19 -62 36 -50 26 -201 155 -181 155 4 0 -3 7 -15
16 -12 8 -31 33 -42 54 -11 21 -25 44 -32 51 -13 14 -44 85 -72 165 l-14 41
56 18 c32 11 60 18 63 17 4 -1 31 8 60 19 30 11 77 28 104 36 28 9 71 32 98
51 26 18 47 30 47 26 0 -4 12 11 26 32 15 21 30 40 35 42 5 2 9 8 9 14 0 14
59 68 74 68 7 0 18 12 25 28 13 27 27 44 69 84 12 12 22 26 22 32 0 11 69 76
81 76 5 0 9 4 9 10 0 5 11 20 25 34 27 27 61 30 233 23 46 -2 85 1 88 5 3 4 0
8 -6 8 -15 0 -3 40 21 66 24 26 24 27 -10 75 -51 69 -144 132 -259 173 -121
43 -314 33 -447 -24 -27 -12 -61 -26 -75 -32 -14 -6 -38 -17 -53 -25 -56 -29
-41 1 26 51 146 110 359 148 552 99z"/>
<path d="M2580 3720 c0 -11 5 -20 10 -20 6 0 10 9 10 20 0 11 -4 20 -10 20 -5
0 -10 -9 -10 -20z"/>
<path d="M2555 3649 c-4 -6 -5 -12 -2 -15 2 -3 7 2 10 11 7 17 1 20 -8 4z"/>
<path d="M2585 3611 c-7 -12 12 -24 25 -16 11 7 4 25 -10 25 -5 0 -11 -4 -15
-9z"/>
<path d="M2760 3487 c0 -19 16 -31 24 -18 3 5 -1 14 -9 21 -12 10 -15 10 -15
-3z"/>
<path d="M2870 3483 c0 -29 12 -63 21 -63 5 0 9 18 9 40 0 29 -4 40 -15 40 -8
0 -15 -8 -15 -17z"/>
<path d="M2960 3394 c0 -8 5 -12 10 -9 6 4 8 11 5 16 -9 14 -15 11 -15 -7z"/>
<path d="M3027 3373 c-4 -5 5 -21 18 -33 14 -13 25 -18 25 -12 0 7 -5 12 -10
12 -6 0 -14 10 -19 22 -4 12 -11 17 -14 11z"/>
<path d="M2977 3354 c-3 -4 1 -13 9 -21 18 -18 27 -13 18 11 -6 17 -16 20 -27
10z"/>
<path d="M3235 3164 c9 -9 18 -14 21 -11 9 9 -6 27 -22 27 -13 0 -13 -2 1 -16z"/>
<path d="M4240 2690 c0 -5 5 -10 10 -10 6 0 10 5 10 10 0 6 -4 10 -10 10 -5 0
-10 -4 -10 -10z"/>
</g>
</svg>
